<?xml version="1.0" standalone="no"?>
<!DOCTYPE svg PUBLIC "-//W3C//DTD SVG 20010904//EN"
 "http://www.w3.org/TR/2001/REC-SVG-20010904/DTD/svg10.dtd">
<svg version="1.0" xmlns="http://www.w3.org/2000/svg"
 width="669.000000pt" height="669.000000pt" viewBox="0 0 669.000000 669.000000"
 preserveAspectRatio="xMidYMid meet">
<metadata>
Created by potrace 1.11, written by Peter Selinger 2001-2013
</metadata>
<g transform="translate(0.000000,669.000000) scale(0.100000,-0.100000)"
fill="#000000" stroke="none">
<path d="M0 3345 l0 -3345 3345 0 3345 0 0 3345 0 3345 -3345 0 -3345 0 0
-3345z m3501 2060 c247 -23 418 -58 589 -117 609 -212 943 -631 984 -1235 l5
-83 -609 0 c-571 0 -609 1 -613 18 -3 9 -8 35 -12 56 -17 101 -119 218 -240
276 -125 60 -200 74 -400 74 -162 1 -187 -1 -255 -23 -97 -30 -135 -50 -193
-101 -70 -62 -107 -140 -107 -229 0 -141 88 -227 306 -301 110 -37 214 -60
599 -130 374 -68 467 -90 682 -161 262 -87 473 -208 624 -359 203 -203 290
-421 306 -771 11 -238 -32 -463 -131 -682 -57 -127 -192 -306 -309 -409 -264
-234 -613 -383 -1042 -443 -185 -26 -486 -38 -680 -26 -622 39 -1061 202
-1376 513 -106 105 -171 196 -234 323 -83 169 -134 373 -135 543 l0 62 608 0
608 0 12 -46 c42 -158 219 -296 452 -354 109 -27 338 -38 447 -21 293 46 464
182 467 369 1 80 -25 141 -84 196 -101 95 -273 146 -802 240 -368 66 -486 92
-635 142 -439 146 -733 375 -883 689 -82 171 -110 307 -110 537 0 278 64 509
199 717 202 313 533 540 961 661 285 80 658 108 1001 75z"/>
</g>
</svg>
